<mxfile host="app.diagrams.net" agent="Mozilla/5.0 (Windows NT 10.0; Win64; x64) AppleWebKit/537.36 (KHTML, like Gecko) Chrome/129.0.0.0 Safari/537.36 Edg/129.0.0.0" version="24.7.17">
  <diagram id="C5RBs43oDa-KdzZeNtuy" name="Page-1">
    <mxGraphModel dx="2658" dy="807" grid="1" gridSize="10" guides="1" tooltips="1" connect="1" arrows="1" fold="1" page="1" pageScale="1" pageWidth="1169" pageHeight="827" math="0" shadow="0">
      <root>
        <mxCell id="WIyWlLk6GJQsqaUBKTNV-0" />
        <mxCell id="WIyWlLk6GJQsqaUBKTNV-1" parent="WIyWlLk6GJQsqaUBKTNV-0" />
        <mxCell id="Xng1pRIdibVuhaVN_rS9-64" style="edgeStyle=orthogonalEdgeStyle;rounded=0;orthogonalLoop=1;jettySize=auto;html=1;exitX=1;exitY=0.5;exitDx=0;exitDy=0;entryX=0;entryY=0.5;entryDx=0;entryDy=0;fontSize=20;strokeWidth=2;" edge="1" parent="WIyWlLk6GJQsqaUBKTNV-1" source="Xng1pRIdibVuhaVN_rS9-54" target="Xng1pRIdibVuhaVN_rS9-55">
          <mxGeometry relative="1" as="geometry" />
        </mxCell>
        <mxCell id="Xng1pRIdibVuhaVN_rS9-54" value="&lt;span style=&quot;font-size: 20px;&quot;&gt;Data Collection&lt;/span&gt;" style="rounded=0;whiteSpace=wrap;html=1;fontSize=20;strokeWidth=2;" vertex="1" parent="WIyWlLk6GJQsqaUBKTNV-1">
          <mxGeometry y="160" width="160" height="80" as="geometry" />
        </mxCell>
        <mxCell id="Xng1pRIdibVuhaVN_rS9-65" style="edgeStyle=orthogonalEdgeStyle;rounded=0;orthogonalLoop=1;jettySize=auto;html=1;exitX=1;exitY=0.5;exitDx=0;exitDy=0;entryX=0;entryY=0.5;entryDx=0;entryDy=0;fontSize=20;strokeWidth=2;" edge="1" parent="WIyWlLk6GJQsqaUBKTNV-1" source="Xng1pRIdibVuhaVN_rS9-55" target="Xng1pRIdibVuhaVN_rS9-56">
          <mxGeometry relative="1" as="geometry" />
        </mxCell>
        <mxCell id="Xng1pRIdibVuhaVN_rS9-55" value="&lt;span style=&quot;font-size: 20px;&quot;&gt;EDA&lt;/span&gt;" style="rounded=0;whiteSpace=wrap;html=1;fontSize=20;strokeWidth=2;" vertex="1" parent="WIyWlLk6GJQsqaUBKTNV-1">
          <mxGeometry x="200" y="160" width="160" height="80" as="geometry" />
        </mxCell>
        <mxCell id="Xng1pRIdibVuhaVN_rS9-66" style="edgeStyle=orthogonalEdgeStyle;rounded=0;orthogonalLoop=1;jettySize=auto;html=1;exitX=1;exitY=0.5;exitDx=0;exitDy=0;entryX=0;entryY=0.5;entryDx=0;entryDy=0;fontSize=20;strokeWidth=2;" edge="1" parent="WIyWlLk6GJQsqaUBKTNV-1" source="Xng1pRIdibVuhaVN_rS9-56" target="Xng1pRIdibVuhaVN_rS9-57">
          <mxGeometry relative="1" as="geometry" />
        </mxCell>
        <mxCell id="Xng1pRIdibVuhaVN_rS9-56" value="&lt;span style=&quot;font-size: 20px;&quot;&gt;Feature&amp;nbsp;&lt;/span&gt;&lt;div style=&quot;font-size: 20px;&quot;&gt;Selection&lt;/div&gt;" style="rounded=0;whiteSpace=wrap;html=1;fontSize=20;strokeWidth=2;" vertex="1" parent="WIyWlLk6GJQsqaUBKTNV-1">
          <mxGeometry x="400" y="160" width="160" height="80" as="geometry" />
        </mxCell>
        <mxCell id="Xng1pRIdibVuhaVN_rS9-67" style="edgeStyle=orthogonalEdgeStyle;rounded=0;orthogonalLoop=1;jettySize=auto;html=1;exitX=0.5;exitY=0;exitDx=0;exitDy=0;entryX=0.5;entryY=1;entryDx=0;entryDy=0;fontSize=20;strokeWidth=2;" edge="1" parent="WIyWlLk6GJQsqaUBKTNV-1" source="Xng1pRIdibVuhaVN_rS9-57" target="Xng1pRIdibVuhaVN_rS9-59">
          <mxGeometry relative="1" as="geometry" />
        </mxCell>
        <mxCell id="Xng1pRIdibVuhaVN_rS9-69" style="edgeStyle=orthogonalEdgeStyle;rounded=0;orthogonalLoop=1;jettySize=auto;html=1;exitX=0.5;exitY=1;exitDx=0;exitDy=0;entryX=0.5;entryY=0;entryDx=0;entryDy=0;fontSize=20;strokeWidth=2;" edge="1" parent="WIyWlLk6GJQsqaUBKTNV-1" source="Xng1pRIdibVuhaVN_rS9-57" target="Xng1pRIdibVuhaVN_rS9-58">
          <mxGeometry relative="1" as="geometry" />
        </mxCell>
        <mxCell id="Xng1pRIdibVuhaVN_rS9-57" value="&lt;span style=&quot;font-size: 20px;&quot;&gt;Data Preprocessing&lt;/span&gt;" style="rounded=0;whiteSpace=wrap;html=1;fontSize=20;strokeWidth=2;" vertex="1" parent="WIyWlLk6GJQsqaUBKTNV-1">
          <mxGeometry x="600" y="160" width="160" height="80" as="geometry" />
        </mxCell>
        <mxCell id="Xng1pRIdibVuhaVN_rS9-70" style="edgeStyle=orthogonalEdgeStyle;rounded=0;orthogonalLoop=1;jettySize=auto;html=1;exitX=1;exitY=0.5;exitDx=0;exitDy=0;entryX=0;entryY=0.5;entryDx=0;entryDy=0;fontSize=20;strokeWidth=2;" edge="1" parent="WIyWlLk6GJQsqaUBKTNV-1" source="Xng1pRIdibVuhaVN_rS9-58" target="Xng1pRIdibVuhaVN_rS9-62">
          <mxGeometry relative="1" as="geometry" />
        </mxCell>
        <mxCell id="Xng1pRIdibVuhaVN_rS9-58" value="&lt;span style=&quot;font-size: 20px;&quot;&gt;Split&lt;/span&gt;&lt;div style=&quot;font-size: 20px;&quot;&gt;Data&lt;/div&gt;" style="rounded=0;whiteSpace=wrap;html=1;fontSize=20;strokeWidth=2;" vertex="1" parent="WIyWlLk6GJQsqaUBKTNV-1">
          <mxGeometry x="600" y="280" width="160" height="80" as="geometry" />
        </mxCell>
        <mxCell id="Xng1pRIdibVuhaVN_rS9-68" style="edgeStyle=orthogonalEdgeStyle;rounded=0;orthogonalLoop=1;jettySize=auto;html=1;exitX=1;exitY=0.5;exitDx=0;exitDy=0;entryX=0;entryY=0.5;entryDx=0;entryDy=0;fontSize=20;strokeWidth=2;" edge="1" parent="WIyWlLk6GJQsqaUBKTNV-1" source="Xng1pRIdibVuhaVN_rS9-59" target="Xng1pRIdibVuhaVN_rS9-60">
          <mxGeometry relative="1" as="geometry" />
        </mxCell>
        <mxCell id="Xng1pRIdibVuhaVN_rS9-59" value="&lt;span style=&quot;font-size: 20px;&quot;&gt;Dependency&lt;/span&gt;&lt;div style=&quot;font-size: 20px;&quot;&gt;Modeling&lt;/div&gt;" style="rounded=0;whiteSpace=wrap;html=1;fontSize=20;strokeWidth=2;" vertex="1" parent="WIyWlLk6GJQsqaUBKTNV-1">
          <mxGeometry x="600" y="40" width="160" height="80" as="geometry" />
        </mxCell>
        <mxCell id="Xng1pRIdibVuhaVN_rS9-73" style="edgeStyle=orthogonalEdgeStyle;rounded=0;orthogonalLoop=1;jettySize=auto;html=1;exitX=1;exitY=0.5;exitDx=0;exitDy=0;entryX=0.5;entryY=0;entryDx=0;entryDy=0;fontSize=20;strokeWidth=2;" edge="1" parent="WIyWlLk6GJQsqaUBKTNV-1" source="Xng1pRIdibVuhaVN_rS9-60" target="Xng1pRIdibVuhaVN_rS9-61">
          <mxGeometry relative="1" as="geometry" />
        </mxCell>
        <mxCell id="Xng1pRIdibVuhaVN_rS9-60" value="&lt;span style=&quot;font-size: 20px;&quot;&gt;Validation&lt;/span&gt;&lt;div style=&quot;font-size: 20px;&quot;&gt;Model&lt;/div&gt;" style="rounded=0;whiteSpace=wrap;html=1;fontSize=20;strokeWidth=2;" vertex="1" parent="WIyWlLk6GJQsqaUBKTNV-1">
          <mxGeometry x="800" y="40" width="160" height="80" as="geometry" />
        </mxCell>
        <mxCell id="Xng1pRIdibVuhaVN_rS9-61" value="&lt;span style=&quot;font-size: 20px;&quot;&gt;Prediction&lt;/span&gt;" style="rounded=0;whiteSpace=wrap;html=1;fontSize=20;strokeWidth=2;" vertex="1" parent="WIyWlLk6GJQsqaUBKTNV-1">
          <mxGeometry x="1000" y="160" width="160" height="80" as="geometry" />
        </mxCell>
        <mxCell id="Xng1pRIdibVuhaVN_rS9-71" style="edgeStyle=orthogonalEdgeStyle;rounded=0;orthogonalLoop=1;jettySize=auto;html=1;exitX=1;exitY=0.5;exitDx=0;exitDy=0;entryX=0;entryY=0.5;entryDx=0;entryDy=0;fontSize=20;strokeWidth=2;" edge="1" parent="WIyWlLk6GJQsqaUBKTNV-1" source="Xng1pRIdibVuhaVN_rS9-62" target="Xng1pRIdibVuhaVN_rS9-63">
          <mxGeometry relative="1" as="geometry" />
        </mxCell>
        <mxCell id="Xng1pRIdibVuhaVN_rS9-62" value="&lt;span style=&quot;font-size: 20px;&quot;&gt;Model Training&lt;/span&gt;" style="rounded=0;whiteSpace=wrap;html=1;fontSize=20;strokeWidth=2;" vertex="1" parent="WIyWlLk6GJQsqaUBKTNV-1">
          <mxGeometry x="800" y="280" width="160" height="80" as="geometry" />
        </mxCell>
        <mxCell id="Xng1pRIdibVuhaVN_rS9-72" style="edgeStyle=orthogonalEdgeStyle;rounded=0;orthogonalLoop=1;jettySize=auto;html=1;exitX=0.5;exitY=0;exitDx=0;exitDy=0;entryX=0.5;entryY=1;entryDx=0;entryDy=0;fontSize=20;strokeWidth=2;" edge="1" parent="WIyWlLk6GJQsqaUBKTNV-1" source="Xng1pRIdibVuhaVN_rS9-63" target="Xng1pRIdibVuhaVN_rS9-61">
          <mxGeometry relative="1" as="geometry" />
        </mxCell>
        <mxCell id="Xng1pRIdibVuhaVN_rS9-63" value="&lt;span style=&quot;font-size: 20px;&quot;&gt;Model Evaluation&lt;/span&gt;" style="rounded=0;whiteSpace=wrap;html=1;fontSize=20;strokeWidth=2;" vertex="1" parent="WIyWlLk6GJQsqaUBKTNV-1">
          <mxGeometry x="1000" y="280" width="160" height="80" as="geometry" />
        </mxCell>
      </root>
    </mxGraphModel>
  </diagram>
</mxfile>
